<svg width="300" height="300" xmlns="http://www.w3.org/2000/svg">
  <rect width="300" height="300" fill="#f0f0f0"/>
  <rect x="20" y="20" width="260" height="260" fill="white"/>

  <!-- QR Code pattern simulation -->
  <g fill="black">
    <!-- Top-left corner -->
    <rect x="40" y="40" width="60" height="60"/>
    <rect x="50" y="50" width="40" height="40" fill="white"/>
    <rect x="60" y="60" width="20" height="20" fill="black"/>

    <!-- Top-right corner -->
    <rect x="200" y="40" width="60" height="60"/>
    <rect x="210" y="50" width="40" height="40" fill="white"/>
    <rect x="220" y="60" width="20" height="20" fill="black"/>

    <!-- Bottom-left corner -->
    <rect x="40" y="200" width="60" height="60"/>
    <rect x="50" y="210" width="40" height="40" fill="white"/>
    <rect x="60" y="220" width="20" height="20" fill="black"/>

    <!-- Random pattern blocks -->
    <rect x="120" y="40" width="10" height="10"/>
    <rect x="140" y="40" width="10" height="10"/>
    <rect x="160" y="40" width="10" height="10"/>
    <rect x="120" y="60" width="10" height="10"/>
    <rect x="150" y="60" width="10" height="10"/>
    <rect x="120" y="80" width="10" height="10"/>
    <rect x="140" y="80" width="10" height="10"/>

    <rect x="120" y="120" width="10" height="10"/>
    <rect x="140" y="120" width="10" height="10"/>
    <rect x="160" y="120" width="10" height="10"/>
    <rect x="180" y="120" width="10" height="10"/>
    <rect x="120" y="140" width="10" height="10"/>
    <rect x="160" y="140" width="10" height="10"/>
    <rect x="120" y="160" width="10" height="10"/>
    <rect x="140" y="160" width="10" height="10"/>
    <rect x="180" y="160" width="10" height="10"/>

    <rect x="120" y="200" width="10" height="10"/>
    <rect x="140" y="200" width="10" height="10"/>
    <rect x="160" y="200" width="10" height="10"/>
    <rect x="120" y="220" width="10" height="10"/>
    <rect x="150" y="220" width="10" height="10"/>
    <rect x="180" y="220" width="10" height="10"/>
    <rect x="120" y="240" width="10" height="10"/>
    <rect x="140" y="240" width="10" height="10"/>
    <rect x="170" y="240" width="10" height="10"/>

    <rect x="200" y="120" width="10" height="10"/>
    <rect x="220" y="120" width="10" height="10"/>
    <rect x="240" y="120" width="10" height="10"/>
    <rect x="210" y="140" width="10" height="10"/>
    <rect x="240" y="140" width="10" height="10"/>
    <rect x="200" y="160" width="10" height="10"/>
    <rect x="220" y="160" width="10" height="10"/>
    <rect x="250" y="160" width="10" height="10"/>

    <rect x="200" y="200" width="10" height="10"/>
    <rect x="220" y="200" width="10" height="10"/>
    <rect x="240" y="200" width="10" height="10"/>
    <rect x="210" y="220" width="10" height="10"/>
    <rect x="230" y="220" width="10" height="10"/>
    <rect x="200" y="240" width="10" height="10"/>
    <rect x="220" y="240" width="10" height="10"/>
    <rect x="250" y="240" width="10" height="10"/>
  </g>

  <text x="150" y="285" text-anchor="middle" font-family="Arial" font-size="12" fill="#999">默认二维码</text>
</svg>
